# xmcd
#
# Track frame offsets:
#	150
#	33865
#	48505
#	68715
#	87165
#	108023
#	131293
#	154140
#	181410
#	203245
#	233105
#	260443
#	288890
#	324230
#
# Disc length: 4417 seconds
# Revision: 0
# Processed by: cddbd v1.5.2PL0 Copyright (c) Steve Scherf et al.
# Submitted via: dBpowerAMP V12.0
#
DISCID=b2113f0e
DTITLE=David Coverdale - Ballads
DYEAR=1998
DGENRE=Rock
TTITLE0=Mistreated
TTITLE1=Soldier of Fortune
TTITLE2=You Keep on Moving
TTITLE3=Gypsy
TTITLE4=Help Me Thro' the Day
TTITLE5=Blindman
TTITLE6=Love Man
TTITLE7=Crying in the Rain
TTITLE8=Is This Love
TTITLE9=Looking for Love
TTITLE10=Sailing Ships
TTITLE11=Take Me for a Little While
TTITLE12=Dont't Leave Me This Way
TTITLE13=We Wish You Well
EXTD=
EXTT0=
EXTT1=
EXTT2=
EXTT3=
EXTT4=
EXTT5=
EXTT6=
EXTT7=
EXTT8=
EXTT9=
EXTT10=
EXTT11=
EXTT12=
EXTT13=
PLAYORDER=
